# xmcd CD database file
#
# Track frame offsets:
#	150
#	14741
#	30695
#	45487
#	60066
#	73383
#	86921
#	99904
#	114723
#	128110
#	143805
#	158547
#	173050
#	187235
#	201823
#	216900
#	229510
#	242798
#
# Disc length: 3415 seconds
#
# Revision: 0
# Processed by: cddbd v1.5.1PL0 Copyright (c) Steve Scherf et al.
# Submitted via: CDex 1.51
#
DISCID=fc0d5512
DTITLE=Tommy Dorsey And His Orchestra - Portrait
DYEAR=2002
DGENRE=Jazz
TTITLE0=Drumology
TTITLE1=The Continental
TTITLE2=Puddle Wump
TTITLE3=Pussy Willow
TTITLE4=The Hucklebuck
TTITLE5=Summertime
TTITLE6=I Get A Kick Out Of You
TTITLE7=Comin' Through The Rye
TTITLE8=Birmingham Bounce
TTITLE9=The Song Is You
TTITLE10=Come Rain Or Come Shine
TTITLE11=Hollywood Hat
TTITLE12=Then I'll Be Happy
TTITLE13=Tom Foolery
TTITLE14=Bingo, Bango, Boffo
TTITLE15=At Sundown
TTITLE16=How Are The Things In Glocca Morra?
TTITLE17=Trombonology
EXTD=YEAR: 2002
EXTT0=
EXTT1=
EXTT2=
EXTT3=
EXTT4=
EXTT5=
EXTT6=
EXTT7=
EXTT8=
EXTT9=
EXTT10=
EXTT11=
EXTT12=
EXTT13=
EXTT14=
EXTT15=
EXTT16=
EXTT17=
PLAYORDER=
